# xmcd
#
# Track frame offsets: 
#        150
#        18541
#        36946
#        61800
#        82351
#        104718
#        121612
#        142962
#        164281
#        181717
#        198209
#        214746
#
# Disc length: 3243 seconds
#
# Revision: 1
# Processed by: cddbd v1.5.2PL0 Copyright (c) Steve Scherf et al.
# Submitted via: ExactAudioCopy v1.0b2
#
DISCID=a20ca90c
DTITLE=Vince Gill - Guitar Slinger
DYEAR=2011
DGENRE=Country
TTITLE0=Guitar Slinger
TTITLE1=Tell Me Fool
TTITLE2=Threaten Me with Heaven
TTITLE3=When the Lady Sings the Blues
TTITLE4=Who Wouldn't Fall in Love with You
TTITLE5=When Lonely Comes Around
TTITLE6=True Love (Duet with Amy Grant)
TTITLE7=Bread and Water
TTITLE8=Billy Paul
TTITLE9=The Old Lucky Diamond Hotel
TTITLE10=If I Die
TTITLE11=Buttermilk John (feat. The Time Jumpers)
EXTD=YEAR: 2011
EXTT0=
EXTT1=
EXTT2=
EXTT3=
EXTT4=
EXTT5=
EXTT6=
EXTT7=
EXTT8=
EXTT9=
EXTT10=
EXTT11=
PLAYORDER=
